<svg width="40" height="40" viewBox="0 0 40 40" fill="none" xmlns="http://www.w3.org/2000/svg">
<rect width="40" height="40" rx="20" fill="#FF3E79"/>
<path fill-rule="evenodd" clip-rule="evenodd" d="M12 11C12 10.4477 12.4477 9.99998 13 9.99998H27C27.5523 9.99998 28 10.4477 28 11V28.5C27.1716 28.5 26.5 29.1715 26.5 29.9999H25.5C25.4999 29.1715 24.8284 28.5 24 28.5C23.1716 28.5 22.5 29.1715 22.5 29.9999H21.5C21.4999 29.1715 20.8284 28.5 20 28.5C19.1716 28.5 18.5 29.1715 18.5 29.9999H17.5C17.4999 29.1715 16.8284 28.5 16 28.5C15.1716 28.5 14.5 29.1715 14.5 29.9999H13.5C13.4999 29.1715 12.8284 28.5 12 28.5V11ZM21.4163 21.7883C20.5536 22.3443 19.4703 22.5935 18.3296 22.3827C16.5274 22.0472 15.0895 20.5326 14.8595 18.7113C14.4952 15.826 16.9492 13.42 19.8538 13.8801C21.656 14.1677 23.1034 15.6439 23.4006 17.4364C23.5827 18.5484 23.3239 19.574 22.7871 20.4272L24.896 22.5264C25.2699 22.9003 25.2699 23.5138 24.896 23.8876C24.5126 24.271 23.8991 24.271 23.5252 23.8972L21.4163 21.7883ZM16.7058 18.0588C16.7058 16.7599 17.7599 15.7058 19.0588 15.7058C20.3576 15.7058 21.4117 16.7599 21.4117 18.0588C21.4117 19.3576 20.3576 20.4117 19.0588 20.4117C17.7599 20.4117 16.7058 19.3576 16.7058 18.0588Z" fill="white"/>
</svg>
